<svg width="1494" height="464.003" viewBox="0 0 1494 464.003" xmlns="http://www.w3.org/2000/svg">
    <g id="svgGroup" stroke-linecap="round" fill-rule="evenodd" font-size="9pt" stroke="#00000000" stroke-width="0.25mm" fill="#ffffff" style="stroke:#00000000;stroke-width:0.25mm;fill:#ffffff">
        <path d="M 1447 87.003 L 1494 87.003 L 1344.5 464.003 L 1299.5 464.003 L 1344.5 351.003 L 1241 87.003 L 1286 87.003 L 1367.5 301.003 L 1447 87.003 Z M 852 167.003 L 852 348.003 L 808 348.003 L 808 173.003 Q 808 148.003 797.5 134.253 A 33.637 33.637 0 0 0 777.863 121.846 A 53.404 53.404 0 0 0 765.5 120.503 Q 744.966 120.503 729.876 126.123 A 68.578 68.578 0 0 0 724.25 128.503 Q 712.08 134.316 697.931 145.407 A 255.629 255.629 0 0 0 687 154.503 L 687 348.003 L 643 348.003 L 643 145.003 L 632 87.003 L 676 87.003 L 683 123.503 Q 706.5 101.003 726.75 91.003 Q 744.311 82.331 769.203 81.18 A 168.728 168.728 0 0 1 777 81.003 A 95.67 95.67 0 0 1 799.343 83.453 A 61.061 61.061 0 0 1 833 103.753 Q 852 126.503 852 167.003 Z M 1172 167.003 L 1172 348.003 L 1128 348.003 L 1128 173.003 Q 1128 148.003 1117.5 134.253 A 33.637 33.637 0 0 0 1097.863 121.846 A 53.404 53.404 0 0 0 1085.5 120.503 Q 1064.966 120.503 1049.876 126.123 A 68.578 68.578 0 0 0 1044.25 128.503 Q 1032.08 134.316 1017.931 145.407 A 255.629 255.629 0 0 0 1007 154.503 L 1007 348.003 L 963 348.003 L 963 145.003 L 952 87.003 L 996 87.003 L 1003 123.503 Q 1026.5 101.003 1046.75 91.003 Q 1064.311 82.331 1089.203 81.18 A 168.728 168.728 0 0 1 1097 81.003 A 95.67 95.67 0 0 1 1119.343 83.453 A 61.061 61.061 0 0 1 1153 103.753 Q 1172 126.503 1172 167.003 Z M 553.5 217.503 L 553.5 232.003 L 368.5 232.003 A 127.405 127.405 0 0 0 374.333 259.678 A 89.105 89.105 0 0 0 394.25 293.253 A 71.888 71.888 0 0 0 433.652 314.204 A 104.424 104.424 0 0 0 453.5 316.003 Q 476 316.003 497.25 306.753 A 161.916 161.916 0 0 0 520.04 294.456 A 220.724 220.724 0 0 0 540.5 279.503 L 542.5 279.503 L 542.5 323.503 Q 520.5 339.503 499 346.753 A 140.571 140.571 0 0 1 459.831 353.86 A 161.468 161.468 0 0 1 453 354.003 A 182.316 182.316 0 0 1 452.376 354.002 Q 412.77 353.866 383.5 336.503 Q 354 319.003 338.25 287.753 A 146.186 146.186 0 0 1 324.196 241.585 A 187.128 187.128 0 0 1 322.5 216.003 A 178.695 178.695 0 0 1 326.884 175.677 A 147.657 147.657 0 0 1 336.75 146.753 Q 351 116.003 377.5 98.503 A 105.773 105.773 0 0 1 425.449 81.725 A 133.789 133.789 0 0 1 439.5 81.003 A 122.029 122.029 0 0 1 470.754 84.839 A 96.87 96.87 0 0 1 501.25 98.753 A 108.76 108.76 0 0 1 537.656 141.807 A 132.14 132.14 0 0 1 540.25 147.503 Q 553.5 178.503 553.5 217.503 Z M 122 348.003 L 0 348.003 L 0 0.003 L 125.5 0.003 A 185.83 185.83 0 0 1 156.153 2.368 Q 172.475 5.103 185.565 10.999 A 87.277 87.277 0 0 1 204.5 22.503 A 71.593 71.593 0 0 1 228.884 60.976 Q 232.048 72.785 232.443 86.918 A 146.044 146.044 0 0 1 232.5 91.003 A 112.146 112.146 0 0 1 228.74 120.984 A 75.815 75.815 0 0 1 194 167.003 A 79.761 79.761 0 0 1 227.737 192.957 Q 238.664 207.864 242.249 228.717 A 128.613 128.613 0 0 1 244 250.503 A 125.437 125.437 0 0 1 240.953 279.1 Q 236.392 298.575 225.006 312.29 A 72.885 72.885 0 0 1 212 324.503 Q 180 348.003 122 348.003 Z M 121 191.003 L 44 191.003 L 44 306.003 L 122 306.003 A 206.887 206.887 0 0 0 141.432 305.156 Q 160.838 303.319 172.93 297.491 A 46.114 46.114 0 0 0 179 294.003 A 35.451 35.451 0 0 0 191.561 278.029 Q 196.5 266.3 196.5 248.503 A 98.391 98.391 0 0 0 195.32 232.659 Q 193.993 224.554 191.175 218.255 A 35.273 35.273 0 0 0 178.75 203.003 A 54.928 54.928 0 0 0 164.901 196.483 Q 148.031 191.003 121 191.003 Z M 120 42.003 L 44 42.003 L 44 149.503 L 120 149.503 Q 150.73 149.503 166.187 139.586 A 37.881 37.881 0 0 0 169.75 137.003 Q 180.962 127.813 183.931 108.352 A 102.095 102.095 0 0 0 185 93.003 Q 185 76.648 180.15 66.018 A 32.058 32.058 0 0 0 169.75 53.003 Q 156.132 43.18 127.165 42.129 A 197.658 197.658 0 0 0 120 42.003 Z M 368.5 198.003 L 508 198.003 Q 504.5 161.503 487.75 139.503 A 54.471 54.471 0 0 0 448.437 117.938 A 79.517 79.517 0 0 0 440 117.503 A 68.888 68.888 0 0 0 416.471 121.361 A 59.3 59.3 0 0 0 390.5 140.003 A 93.376 93.376 0 0 0 373.523 172.252 A 131.268 131.268 0 0 0 368.5 198.003 Z" vector-effect="non-scaling-stroke" />
    </g>
</svg>